<svg id="Layer_1" data-name="Layer 1" xmlns="http://www.w3.org/2000/svg" xmlns:xlink="http://www.w3.org/1999/xlink" viewBox="0 0 220 48.09"><defs><style>.cls-1{fill:url(#linear-gradient);}</style><linearGradient id="linear-gradient" x1="-150.66" y1="543.16" x2="-149.66" y2="543.16" gradientTransform="matrix(58.11, 20.32, 27.1, -43.59, -5930.51, 26872.62)" gradientUnits="userSpaceOnUse"><stop offset="0" stop-color="#b4373d"/><stop offset="1" stop-color="#b23acb"/></linearGradient></defs><g id="_17260103-7e79-4f45-8666-7bebcf73c89c" data-name="17260103-7e79-4f45-8666-7bebcf73c89c"><path d="M129.36,135.49c-5.83,0-11.11,3.19-11.11,8.86,0,5.86,3.91,7.93,10.59,9.6,3.61.88,4.71,2.21,4.71,3.73s-1.61,2.73-3.74,2.73a4.78,4.78,0,0,1-5-3.94h-7.65c.46,6.59,5.47,9.56,12.91,9.56,5.92,0,11.53-3,11.53-8.86,0-4.5-2.64-7.72-9.11-9.26-4.85-1.16-6.19-2.28-6.19-4.16s1.18-2.65,2.92-2.65c2.52,0,3.79,1.61,4.12,4H141C140.32,139.71,137.1,135.49,129.36,135.49Zm38,12.81c-.61-4-3.37-6.16-8.05-6.16a9.51,9.51,0,0,0-5.1,1.3l-2,2.83V134h-7.65v31.45h7.65V154.71c0-5.14,1.67-7.38,4-7.38a3.34,3.34,0,0,1,3.64,3.43c.09,1.15.09,2.37.09,3.1v11.56h7.65V152.58A33.1,33.1,0,0,0,167.4,148.3Zm17.85,17.12h7.47a40.44,40.44,0,0,1-.42-5.73v-6.38c0-1.4,0-2.73-.13-3.86-.33-4.13-2.79-7.31-10-7.31-5.74,0-10.45,3-10.51,8.32l7.23,0c.12-2,1.15-3.1,2.94-3.1a2.48,2.48,0,0,1,2.7,2.15,12.06,12.06,0,0,1,.09,1.67v.34h-1.42c-7.71,0-12.3,3-12.3,7.8,0,4.4,3.52,6.74,7.26,6.74a10.26,10.26,0,0,0,5.61-1.55l1-2.37Zm-3.91-4.58c-1.52,0-2.59-.76-2.59-2.13,0-2.24,2.46-3.15,5.89-2.88v1.49A3.34,3.34,0,0,1,181.34,160.84Zm29.29-18.7a6.14,6.14,0,0,0-4.46,2l-1.64,3.19v-4.62h-7.65v22.71h7.65V157.1c0-6.86,2.1-9,7.83-8.59v-6.25A9.91,9.91,0,0,0,210.63,142.14Zm15,0c-7.44,0-12.2,4.61-12.2,11.93s4.76,12,12.2,12,12.21-4.68,12.21-12S233.1,142.14,225.66,142.14Zm0,18.7c-2.7,0-4.37-2.25-4.37-6.77s1.67-6.74,4.37-6.74,4.37,2.18,4.37,6.74S228.39,160.84,225.66,160.84Zm34.34-.18H248.52l11.36-13.09V142.9H241v4.76H251.8L240.33,161v4.46H260Z" transform="translate(-40 -125.95)"/></g><g id="de327a30-3404-466e-827c-4ac3f400e10b"><path class="cls-1" d="M71.94,126l-7.89,47.47-.13.63h8.27l7.89-47.47.12-.63ZM60,133.22l-2.13,1.38-16,10L40,145.74v8.52l1.88,1.13,16,10L60,166.79v-9.52L48.39,150,60,142.74Zm24,0v9.52L95.73,150l-11.65,7.27v9.52l2.13-1.38,16-10,1.88-1.13v-8.52l-1.88-1.12-16-10Z" transform="translate(-40 -125.95)"/></g></svg>